<svg xmlns="http://www.w3.org/2000/svg" viewBox="0 0 200 200" width="200" height="200">
  <!-- Able - Friendly blob mascot with more realistic expression and movement -->
  
  <!-- Shadow/ground -->
  <ellipse cx="105" cy="185" rx="45" ry="8" fill="#48BFE3" opacity="0.2" />
  
  <!-- Main body - larger, rounder asymmetric blob -->
  <path d="M45 150 C20 135, 12 95, 35 60 C50 38, 85 22, 115 25 C150 29, 178 52, 175 88 C173 112, 162 138, 145 155 C125 172, 70 168, 45 150 Z" 
        fill="#48BFE3" />
  
  <!-- Body highlight/sheen for 3D feel -->
  <path d="M65 55 C80 38, 105 32, 125 38 C140 43, 150 55, 148 65 C140 55, 120 45, 95 43 C78 42, 68 48, 65 55 Z" 
        fill="#72EFDD" opacity="0.4" />
  
  <!-- Movement trail / energy swoosh -->
  <path d="M25 110 C10 105, 5 88, 15 75 C22 66, 18 80, 12 88 C6 98, 12 108, 25 110 Z" 
        fill="#72EFDD" opacity="0.7" />
  <path d="M18 130 C8 127, 4 118, 9 108 C12 103, 10 112, 7 117 C4 123, 8 128, 18 130 Z" 
        fill="#80FFDB" opacity="0.5" />
  <path d="M22 95 C12 92, 8 82, 14 73 C17 69, 15 76, 11 80 C8 86, 12 92, 22 95 Z" 
        fill="#80FFDB" opacity="0.35" />
  
  <!-- Left eyebrow -->
  <path d="M70 62 C76 57, 88 56, 95 60" 
        fill="none" stroke="#5E60CE" stroke-width="2.5" stroke-linecap="round" />
  
  <!-- Right eyebrow - slightly raised for expressiveness -->
  <path d="M120 58 C126 53, 138 53, 145 58" 
        fill="none" stroke="#5E60CE" stroke-width="2.5" stroke-linecap="round" />
  
  <!-- Left eye - larger, more detailed -->
  <ellipse cx="85" cy="82" rx="14" ry="16" fill="white" />
  <ellipse cx="88" cy="84" rx="8" ry="9" fill="#5E60CE" />
  <ellipse cx="88" cy="84" rx="5" ry="6" fill="#3A0CA3" />
  <circle cx="92" cy="79" r="3" fill="white" />
  <circle cx="85" cy="87" r="1.5" fill="white" opacity="0.6" />
  
  <!-- Right eye - larger, more detailed -->
  <ellipse cx="135" cy="78" rx="14" ry="16" fill="white" />
  <ellipse cx="138" cy="80" rx="8" ry="9" fill="#5E60CE" />
  <ellipse cx="138" cy="80" rx="5" ry="6" fill="#3A0CA3" />
  <circle cx="142" cy="75" r="3" fill="white" />
  <circle cx="135" cy="83" r="1.5" fill="white" opacity="0.6" />
  
  <!-- Nose - subtle -->
  <ellipse cx="110" cy="100" rx="4" ry="3" fill="#3AB8D8" />
  
  <!-- Mouth - warm open smile with depth -->
  <path d="M90 115 C100 128, 125 128, 138 115" 
        fill="none" stroke="#5E60CE" stroke-width="3" stroke-linecap="round" />
  <path d="M95 117 C103 125, 122 125, 133 117" 
        fill="#3A0CA3" opacity="0.15" />
  
  <!-- Cheek blush -->
  <ellipse cx="70" cy="105" rx="8" ry="5" fill="#80FFDB" opacity="0.4" />
  <ellipse cx="150" cy="100" rx="8" ry="5" fill="#80FFDB" opacity="0.4" />
  
  <!-- Small raised hand/wave -->
  <path d="M165 55 C170 42, 180 38, 185 43 C190 48, 187 58, 180 63 C175 67, 168 63, 165 55 Z" 
        fill="#56CFE1" />
  <path d="M180 38 C183 32, 188 30, 190 34 C192 38, 189 42, 185 43" 
        fill="#56CFE1" />
  
  <!-- Speech bubble dots - language/communication -->
  <circle cx="183" cy="28" r="4.5" fill="#72EFDD" />
  <circle cx="190" cy="18" r="3.5" fill="#80FFDB" />
  <circle cx="194" cy="9" r="2.5" fill="#80FFDB" opacity="0.7" />
</svg>